<svg xmlns="http://www.w3.org/2000/svg" viewBox="0 0 475.09 105.43"><defs><style>.cls-1{fill:#459ed8;}.cls-2{fill:#4595ca;}.cls-3{fill:#3f9ed9;}.cls-4{fill:none;}.cls-5{fill:#fff;}.cls-6{fill:#272828;}</style></defs><g id="レイヤー_2" data-name="レイヤー 2"><g id="レイヤー_1-2" data-name="レイヤー 1"><polygon class="cls-1" points="49.15 35.53 63.36 102.85 14.21 105.42 0 38.1 49.15 35.53"/><line class="cls-2" x1="37.79" y1="72.88" x2="32.41" y2="72.88"/><line class="cls-2" x1="39.39" y1="72.88" x2="37.79" y2="72.88"/><polygon class="cls-3" points="81.21 0 81.81 63.68 49.91 75.29 33.48 62.12 33.05 17.53 81.21 0"/><line class="cls-2" x1="27.03" y1="63.65" x2="27.03" y2="60.44"/><line class="cls-2" x1="27.03" y1="67.3" x2="27.03" y2="63.65"/><line class="cls-4" x1="33.68" y1="71.39" x2="33.44" y2="72.77"/><line class="cls-4" x1="42.6" y1="78.94" x2="41.28" y2="79.43"/><polygon class="cls-5" points="33.53 63.07 49.6 75.5 33.66 79.37 33.53 63.07"/><path class="cls-6" d="M141.73,27.29V38.5H125.06V90.62H113.34V38.5H96.59V27.29Z"/><path class="cls-6" d="M164.48,27.29h13.18l19.72,63.33H184.75l-3.68-13H160.54l-3.77,13H144.58Zm-.77,39.4H178l-7-24.92Z"/><path class="cls-6" d="M212.86,71.07A14,14,0,0,0,215,77.56q2.9,3.91,9.93,3.91a18.92,18.92,0,0,0,6.83-1,7.3,7.3,0,0,0,5-7.35,5.57,5.57,0,0,0-2.44-4.85,24.42,24.42,0,0,0-7.74-3l-6-1.5q-8.89-2.24-12.22-4.86-5.64-4.38-5.64-13.7a19.39,19.39,0,0,1,5.51-14.14q5.52-5.62,16.19-5.63a22.83,22.83,0,0,1,15.22,5.31q6.3,5.3,6.6,15.4H235c-.21-3.81-1.7-6.52-4.5-8.12a13.82,13.82,0,0,0-6.93-1.59,12,12,0,0,0-7.37,2.06,6.78,6.78,0,0,0-2.75,5.76,5.56,5.56,0,0,0,2.71,5.07A31,31,0,0,0,223.55,52l9.78,2.62q6.42,1.73,9.64,4.6,5,4.47,5,12.93A19.25,19.25,0,0,1,242,86.52q-5.89,5.73-16.68,5.74-11,0-17.31-5.65t-6.31-15.54Z"/><path class="cls-6" d="M256.31,27.29h11.45V53.38L289.3,27.29h15.05L281.48,53.34l24,37.28h-15L273.37,63l-5.61,6.46V90.62H256.31Z"/><path class="cls-6" d="M312,27.29h11.65v52h27.83V90.62H312Z"/><path class="cls-6" d="M370,90.62H358.4V27.29H370Z"/><path class="cls-6" d="M413.48,27.29h12.1l-19,63.33h-11L376.72,27.29h12.44l12.1,48.08Z"/><path class="cls-6" d="M473.73,38.5H444.24V52h27.07V63H444.24V79.24h30.85V90.62H432.86V27.29h40.87Z"/></g></g></svg>