<svg version="1.1" viewBox="0.0 0.0 960.0 540.0" fill="none" stroke="none" stroke-linecap="square" stroke-miterlimit="10" xmlns:xlink="http://www.w3.org/1999/xlink" xmlns="http://www.w3.org/2000/svg"><clipPath id="ge958e2baa6_0_0.0"><path d="m0 0l960.0 0l0 540.0l-960.0 0l0 -540.0z" clip-rule="nonzero"/></clipPath><g clip-path="url(#ge958e2baa6_0_0.0)"><path fill="#ffffff" d="m0 0l960.0 0l0 540.0l-960.0 0z" fill-rule="evenodd"/><path fill="#eeeeee" d="m356.31497 123.685036l0 0c0 -68.30936 55.37567 -123.685036 123.68503 -123.685036l0 0c32.803284 0 64.26306 13.031065 87.45856 36.22651c23.195435 23.195446 36.2265 54.65522 36.2265 87.45853l0 0c0 68.309364 -55.37567 123.685036 -123.68506 123.685036l0 0c-68.30936 0 -123.68503 -55.37567 -123.68503 -123.685036z" fill-rule="evenodd"/><path fill="#eeeeee" d="m200.68727 658.86584c-51.161118 -126.41852 -11.033386 -271.43875 97.836075 -353.57614c108.869446 -82.137375 259.33408 -80.910965 366.8502 2.9901428c107.51611 83.90109 145.2746 229.55615 92.05957 355.12396z" fill-rule="evenodd"/></g></svg>