<svg xmlns="http://www.w3.org/2000/svg" viewBox="0 0 43.62 9.11"><defs><style>.cls-1{fill:#231815;}</style></defs><g id="レイヤー_2" data-name="レイヤー 2"><g id="レイヤー_1-2" data-name="レイヤー 1"><path class="cls-1" d="M7,.25V1.78H4.41V8.89H2.6V1.78H0V.25Z"/><path class="cls-1" d="M10.52.25h2l3.06,8.64h-2l-.57-1.78H9.91L9.33,8.89H7.44ZM10.4,5.62h2.21L11.52,2.23Z"/><path class="cls-1" d="M18,6.22a1.66,1.66,0,0,0,.33.89,1.93,1.93,0,0,0,1.53.53,3.4,3.4,0,0,0,1.06-.14,1,1,0,0,0,.77-1,.72.72,0,0,0-.37-.66,4,4,0,0,0-1.2-.41l-.94-.2a5.84,5.84,0,0,1-1.89-.67,2.09,2.09,0,0,1-.87-1.86A2.47,2.47,0,0,1,17.29.77,3.66,3.66,0,0,1,19.8,0a3.87,3.87,0,0,1,2.36.72,2.59,2.59,0,0,1,1,2.1H21.45a1.25,1.25,0,0,0-.7-1.1,2.34,2.34,0,0,0-1.08-.22,2,2,0,0,0-1.14.28.9.9,0,0,0-.42.79.74.74,0,0,0,.42.69,5.45,5.45,0,0,0,1.14.36L21.19,4a3.94,3.94,0,0,1,1.49.63,2.1,2.1,0,0,1,.78,1.76,2.49,2.49,0,0,1-.92,2A3.86,3.86,0,0,1,20,9.11a4.26,4.26,0,0,1-2.69-.77,2.55,2.55,0,0,1-1-2.12Z"/><path class="cls-1" d="M24.75.25h1.78V3.81L29.86.25h2.33L28.65,3.8l3.73,5.09H30.06L27.39,5.12,26.53,6V8.89H24.75Z"/><path class="cls-1" d="M37.41,2.63a2.6,2.6,0,0,1,1.11,1A3.2,3.2,0,0,1,39,4.9a8.6,8.6,0,0,1,0,1.26H34.43a1.55,1.55,0,0,0,.67,1.35,1.68,1.68,0,0,0,.92.24A1.46,1.46,0,0,0,37,7.46,1.43,1.43,0,0,0,37.29,7H39a2.07,2.07,0,0,1-.61,1.15A3.14,3.14,0,0,1,36,9.11a3.51,3.51,0,0,1-2.25-.79,3.1,3.1,0,0,1-1-2.56,3.44,3.44,0,0,1,.88-2.54,3.07,3.07,0,0,1,2.28-.89A3.59,3.59,0,0,1,37.41,2.63ZM34.92,4.07a1.75,1.75,0,0,0-.45,1h2.88a1.39,1.39,0,0,0-.45-1,1.44,1.44,0,0,0-1-.34A1.31,1.31,0,0,0,34.92,4.07Z"/><path class="cls-1" d="M43.47,2.35h.15V4.07l-.28,0h-.2a1.39,1.39,0,0,0-1.36.66,2.55,2.55,0,0,0-.19,1.14V8.89H39.91V2.5H41.5V3.62a3.43,3.43,0,0,1,.68-.88,1.81,1.81,0,0,1,1.21-.39Z"/></g></g></svg>